<svg width="100" height="100" viewBox="0 0 100 100" fill="none" xmlns="http://www.w3.org/2000/svg">
  <!-- Background Circle -->
  <circle cx="50" cy="50" r="50" fill="#4a7c36"/>
  
  <!-- Wheat/Crop Symbol -->
  <g transform="translate(25, 20)">
    <!-- Stem -->
    <rect x="23" y="35" width="4" height="25" fill="#f4d03f"/>
    
    <!-- Wheat grains -->
    <ellipse cx="19" cy="20" rx="3" ry="5" fill="#f4d03f"/>
    <ellipse cx="22" cy="17" rx="3" ry="5" fill="#f4d03f"/>
    <ellipse cx="25" cy="15" rx="3" ry="5" fill="#f4d03f"/>
    <ellipse cx="28" cy="17" rx="3" ry="5" fill="#f4d03f"/>
    <ellipse cx="31" cy="20" rx="3" ry="5" fill="#f4d03f"/>
    
    <ellipse cx="20" cy="25" rx="3" ry="5" fill="#f4d03f"/>
    <ellipse cx="23" cy="23" rx="3" ry="5" fill="#f4d03f"/>
    <ellipse cx="26" cy="21" rx="3" ry="5" fill="#f4d03f"/>
    <ellipse cx="29" cy="23" rx="3" ry="5" fill="#f4d03f"/>
    <ellipse cx="30" cy="25" rx="3" ry="5" fill="#f4d03f"/>
    
    <ellipse cx="21" cy="30" rx="3" ry="5" fill="#f4d03f"/>
    <ellipse cx="24" cy="28" rx="3" ry="5" fill="#f4d03f"/>
    <ellipse cx="27" cy="27" rx="3" ry="5" fill="#f4d03f"/>
    <ellipse cx="28" cy="30" rx="3" ry="5" fill="#f4d03f"/>
  </g>
  
  <!-- AI/Tech Symbol -->
  <circle cx="70" cy="75" r="8" fill="#ffffff"/>
  <circle cx="70" cy="75" r="5" fill="#4a7c36"/>
  <circle cx="70" cy="75" r="2" fill="#f4d03f"/>
  
  <!-- Digital Elements -->
  <rect x="15" y="75" width="2" height="8" fill="#6ba644"/>
  <rect x="19" y="73" width="2" height="12" fill="#6ba644"/>
  <rect x="23" y="76" width="2" height="9" fill="#6ba644"/>
  <rect x="27" y="74" width="2" height="11" fill="#6ba644"/>
  <rect x="31" y="77" width="2" height="8" fill="#6ba644"/>
</svg>